<svg id="Слой_1" data-name="Слой 1" xmlns="http://www.w3.org/2000/svg" width="50" height="46.15" viewBox="0 0 50 46.15"><title>paw</title><path d="M894.44,883.26a10.11,10.11,0,0,1-.57,3.41,6.64,6.64,0,0,1-1.89,2.78,4.6,4.6,0,0,1-3.16,1.17,6,6,0,0,1-4.15-1.73,10.75,10.75,0,0,1-2.76-4.07,12.61,12.61,0,0,1-.9-4.54,10.11,10.11,0,0,1,.57-3.41,6.64,6.64,0,0,1,1.89-2.78,4.6,4.6,0,0,1,3.16-1.17,5.94,5.94,0,0,1,4.16,1.73,10.85,10.85,0,0,1,2.75,4.06A12.56,12.56,0,0,1,894.44,883.26Zm-10.28,14.51a7,7,0,0,1-1.26,4.18,4.13,4.13,0,0,1-3.58,1.77,6.46,6.46,0,0,1-4.25-1.67,11.67,11.67,0,0,1-4.07-8.58,7.08,7.08,0,0,1,1.26-4.19,4.12,4.12,0,0,1,3.58-1.79,6.46,6.46,0,0,1,4.25,1.67,11.73,11.73,0,0,1,4.07,8.61ZM896,897q3.55,0,7.66,2.93a26.74,26.74,0,0,1,6.88,7.12,14.23,14.23,0,0,1,2.76,7.65,4.67,4.67,0,0,1-.51,2.3,3.13,3.13,0,0,1-1.46,1.35,7.61,7.61,0,0,1-1.94.6,14,14,0,0,1-2.28.17,17.29,17.29,0,0,1-5.63-1.35,17.18,17.18,0,0,0-5.48-1.35,19.24,19.24,0,0,0-5.78,1.34,19.45,19.45,0,0,1-6,1.34q-5.5,0-5.5-4.39a12.48,12.48,0,0,1,1.68-5.75,25.76,25.76,0,0,1,4.19-5.78,24.59,24.59,0,0,1,5.63-4.39A11.89,11.89,0,0,1,896,897Zm7.18-6.34a4.6,4.6,0,0,1-3.16-1.17,6.64,6.64,0,0,1-1.89-2.78,10.11,10.11,0,0,1-.57-3.41,12.56,12.56,0,0,1,.9-4.55,10.85,10.85,0,0,1,2.75-4.06,5.94,5.94,0,0,1,4.16-1.73,4.6,4.6,0,0,1,3.16,1.17,6.64,6.64,0,0,1,1.89,2.78,10.11,10.11,0,0,1,.57,3.41,12.61,12.61,0,0,1-.9,4.54,10.75,10.75,0,0,1-2.76,4.07A6,6,0,0,1,903.18,890.62Zm13-3.12a4.12,4.12,0,0,1,3.58,1.79,7.08,7.08,0,0,1,1.26,4.19,11.67,11.67,0,0,1-4.07,8.58,6.46,6.46,0,0,1-4.25,1.67,4.13,4.13,0,0,1-3.58-1.77,7,7,0,0,1-1.26-4.18,11.73,11.73,0,0,1,4.07-8.61A6.46,6.46,0,0,1,916.16,887.5Z" transform="translate(-871 -872.92)"/></svg>